<svg width="339" height="247" viewBox="0 0 339 247" fill="none" xmlns="http://www.w3.org/2000/svg">
<path d="M70.3113 74.567C70.3113 115.417 71.2933 149.134 72.2754 149.134C73.2574 149.134 79.8044 144.271 86.6787 138.759L99.7726 128.061V80.0785V32.4204H177.027H254.281V48.6308C254.104 65.6516 252.317 66.1377 269.666 62.8956L279.814 60.6262V30.4752V-4.68738e-05H175.063H70.3113V74.567ZM265.152 26.747C270.062 31.6101 269.735 21.3977 265.152 24.3155C263.188 25.6123 259.833 21.8029 256.559 18.2367C251.322 11.7526 248.716 22.6943 177.027 22.3701C105.992 22.3701 109.989 9.64524 103.115 15.8051C99.1865 19.6956 87.2383 22.3701 85.9289 22.3701C81.6734 22.3701 86.5836 27.1523 90.8392 25.5313C92.8032 24.5586 132.085 26.747 179.223 26.747C241.419 26.4228 262.206 23.8292 265.152 26.747Z" fill="#C61F36"/>
<path d="M237.259 79.4299C162.623 94.3434 85.0419 142.65 27.4286 209.76C13.68 225.322 1.56812 240.235 0.258726 242.505C-1.70536 245.423 7.13304 246.395 39.8678 246.395H81.7684L94.535 226.619C111.557 200.358 146.911 163.399 175.717 141.677C215.981 111.202 279.814 83.6446 320.078 79.4299C343.716 74.1618 349.853 76.5934 308.293 87.5351C232.676 113.147 161.314 165.344 115.485 229.537L103.046 246.395H135.126H166.879L184.556 220.135C215.981 172.801 277.195 115.092 321.715 90.1287C330.88 84.6172 338.737 79.1058 338.737 77.4847C338.737 72.9459 261.483 74.5669 237.259 79.4299ZM217.618 98.558C217.618 99.2064 205.506 107.312 190.775 117.038C161.314 135.842 112.866 181.554 89.6248 212.354C74.2394 213.002 81.7684 214.623 81.7684 212.354C85.9289 226.619 103.115 201.007 127.666 175.07C152.544 148.81 158.368 135.436 190.775 122.792C216.308 112.418 217.618 95.9644 217.618 98.558ZM235.295 140.056C232.021 144.271 220.564 156.591 210.089 167.938C199.614 179.285 158.801 160.157 173.085 194.523C153.759 164.971 139.941 223.272 152.217 220.135C142.069 222.728 262.779 127.331 261.469 122.792C259.505 117.281 198.127 161.373 219.732 147.108C240.355 133.815 244.46 129.682 235.295 140.056Z" fill="white"/>
<path d="M265.738 143.622L253.626 153.997V183.824V213.975H227.438H201.578L191.43 228.24C186.192 236.345 181.609 243.477 181.609 244.45C181.609 245.423 203.869 246.395 230.712 246.395H279.814V189.659C279.814 158.536 279.487 132.924 279.159 132.924C278.505 133.248 272.612 137.787 265.738 143.622ZM271.29 229.78C271.29 231.401 273.09 226.214 273.745 229.78C278.655 224.917 235.691 211.543 219.732 220.054C206.966 219.73 204.524 232.454 207.47 229.212C209.434 226.619 218.6 224.349 228.093 224.025C250.68 223.377 247.966 230.996 249.194 228.24C254.104 228.564 270.635 224.917 271.29 229.78Z" fill="#C61F36"/>
</svg>
