<svg xmlns="http://www.w3.org/2000/svg" clip-rule="evenodd" fill-rule="evenodd" height="512" viewBox="0 0 43.3492 43.3492" width="512"><g id="Layer_x0020_1"><g id="_211459664"><path id="_211460192" d="m10.416 37.9446h22.5187v-5.8098c0-3.0829-2.9345-5.6116-6.6245-5.7989-.2818 1.9629-2.2528 3.487-4.6356 3.487-2.3816 0-4.3527-1.5241-4.6347-3.487-3.6909.1873-6.6241 2.7161-6.6241 5.7989zm22.9915.9464h-23.4648c-.2613 0-.4734-.2119-.4734-.4732v-6.283c0-3.7256 3.5926-6.7562 8.0093-6.7562.2616-.0001.4732.2119.4732.4732 0 1.6681 1.6701 3.0247 3.7228 3.0247 2.0535 0 3.7236-1.3566 3.7236-3.0247.0002-.2613.212-.4732.4733-.4732 4.4159-.0001 8.0092 3.0306 8.0092 6.7562l.0002 6.283c0 .2613-.2122.4733-.4734.4732z" fill="#ffffff"></path><path id="_211460312" d="m21.6749 12.429c-3.0336 0-5.5025 2.4677-5.5025 5.5013 0 3.0345 2.4686 5.5021 5.5022 5.5021 3.0348 0 5.5022-2.4676 5.5022-5.5021.0002-3.0336-2.4677-5.5013-5.5019-5.5013zm0 11.9498c-3.5554 0-6.449-2.8925-6.449-6.4485.0002-3.5552 2.8936-6.4477 6.4487-6.4477 3.5561-.0001 6.4485 2.8926 6.4485 6.4477.0002 3.556-2.8925 6.4486-6.4482 6.4485z" fill="#ffffff"></path><path id="_211460240" d="m25.8704 26.325c-.0856 0-.1735-.0236-.2514-.0729-1.1198-.705-1.6651-1.7332-1.6208-3.0553.009-.2612.2248-.4633.489-.4574.2613.0088.4654.2277.4565.489-.0324.976.353 1.7026 1.1791 2.2222.2219.1399.2879.4318.1489.6526-.0894.143-.2435.2218-.4013.2218z" fill="#ffffff"></path><path id="_211460264" d="m17.4798 26.325c-.1579 0-.3117-.0788-.4015-.2218-.1389-.2209-.0729-.5127.1479-.6526.8272-.5196 1.2126-1.2462 1.1791-2.2222-.0085-.2613.1962-.4802.4575-.489.2603-.007.4801.1962.489.4574.0445 1.323-.5008 2.3504-1.6208 3.0553-.0786.0492-.1656.0729-.2512.0729z" fill="#ffffff"></path><path id="_211460048" d="m42.8759 27.6273h-12.4239c-.2613 0-.4733-.2119-.4733-.4731 0-.2614.2119-.4733.4731-.4733h11.9521v-4.8032c0-2.5288-2.3959-4.608-5.4235-4.7904-.277 1.6523-1.9462 2.9251-3.9564 2.9251-2.0112 0-3.6793-1.2727-3.9573-2.9241-.4723.0285-.9376.1045-1.3881.2267-.2522.069-.5127-.0808-.5808-.3322-.0689-.2524.08-.5127.3323-.5807.6688-.1824 1.3644-.274 2.0693-.274.2614-.0001.4733.2119.4733.4732.0001 1.3595 1.3684 2.4647 3.0513 2.4647 1.6821 0 3.0503-1.1052 3.0503-2.4647 0-.2613.212-.4732.4733-.4732 3.7502-.0001 6.8015 2.579 6.8015 5.7496l.0001 5.2764c0 .2613-.2111.4733-.4733.4732z" fill="#ffffff"></path><path id="_211460480" d="m33.0242 5.4046c-2.5061 0-4.5451 2.0388-4.5451 4.5449s2.0388 4.545 4.5449 4.545c2.5051-.0001 4.5448-2.0389 4.5448-4.545.0002-2.5061-2.0397-4.5449-4.5446-4.5449zm0 10.0363c-3.0287 0-5.4915-2.4637-5.4915-5.4914.0001-3.0276 2.4627-5.4913 5.4913-5.4913 3.0277-.0001 5.4903 2.4637 5.4903 5.4913.0001 3.0276-2.4627 5.4914-5.4901 5.4914z" fill="#ffffff"></path><path id="_211460000" d="m36.5468 17.0745c-.0856 0-.1728-.0237-.2516-.073-.9648-.6063-1.4345-1.4926-1.3961-2.6323.0093-.2613.2268-.4643.489-.4564.2617.0088.4653.2277.4565.489-.0263.8005.2761 1.3723.9553 1.7992.2212.139.2869.4308.1479.6526-.0896.143-.2436.2209-.401.2209z" fill="#ffffff"></path><path id="_211460528" d="m29.5008 17.0745c-.1579 0-.3119-.0779-.4017-.2209-.1386-.2218-.0729-.5136.148-.6526.6796-.4269.9819-.9987.9553-1.7992-.0086-.2613.1952-.4802.4565-.489.2603-.008.4801.1952.489.4564.0388 1.1397-.4309 2.026-1.3961 2.6323-.0788.0493-.1656.073-.251.073z" fill="#ffffff"></path><path id="_211460168" d="m12.8983 27.6273h-12.4248c-.2613 0-.4735-.2119-.4735-.4731l.0001-5.2765c0-3.1706 3.0511-5.7496 6.8024-5.7496.2614-.0001.4733.2119.4733.4732.0001 1.3595 1.3683 2.4647 3.0503 2.4647 1.6831 0 3.0512-1.1052 3.0512-2.4647.0001-.2613.212-.4732.4733-.4732.7042-.0001 1.4009.0916 2.0693.274.2516.068.4013.3283.3323.5807-.0679.2514-.3273.4013-.5807.3322-.4503-.1222-.9159-.1981-1.3881-.2267-.2778 1.6513-1.9461 2.9241-3.9573 2.9241-2.0098 0-3.6793-1.2737-3.9564-2.9251-3.0276.1824-5.4233 2.2616-5.4233 4.7904v4.8032h11.9519c.2613 0 .4732.212.4732.4733.0001.2612-.212.4732-.4732.4731z" fill="#ffffff"></path><path id="_211460336" d="m10.3265 5.4046c-2.5062 0-4.5453 2.0388-4.5453 4.5449.0001 2.5061 2.0388 4.545 4.5449 4.545 2.5061-.0001 4.5449-2.0389 4.5449-4.545.0001-2.5061-2.0388-4.5449-4.5445-4.5449zm0 10.0363c-3.0279 0-5.4918-2.4637-5.4918-5.4914.0003-3.0276 2.4637-5.4913 5.4914-5.4913 3.0278-.0001 5.4913 2.4637 5.4913 5.4913s-2.4637 5.4914-5.4909 5.4914z" fill="#ffffff"></path><path id="_211459208" d="m13.8499 17.0745c-.0861 0-.1728-.0237-.2517-.073-.9648-.6063-1.4354-1.4926-1.396-2.6323.008-.2613.2287-.4643.488-.4564.2613.0088.4663.2277.4575.489-.0276.8005.276 1.3723.9543 1.7992.2221.139.2879.4308.1488.6526-.0895.143-.2434.2209-.4009.2209z" fill="#ffffff"></path><path id="_211459040" d="m6.8025 17.0745c-.1565 0-.3105-.0779-.4002-.2209-.1396-.2218-.073-.5136.1478-.6526.6783-.4269.982-.9987.9553-1.7992-.0085-.2613.1953-.4802.4565-.489.2625-.008.4801.1952.489.4564.0388 1.1397-.4318 2.026-1.3969 2.6323-.078.0493-.1647.073-.2515.073z" fill="#ffffff"></path></g></g></svg>