<svg xmlns="http://www.w3.org/2000/svg" id="Layer_1" height="512" viewBox="0 0 512 512" width="512" data-name="Layer 1"><path d="m110.991 413.333a27.448 27.448 0 0 0 19.469 8.051h.107a27.485 27.485 0 0 0 27.518 27.627h.118v.108a27.454 27.454 0 0 0 27.51 27.511h.107a27.533 27.533 0 0 0 46.988 19.587l11.946-11.946a27.388 27.388 0 0 0 5.543-7.96l22.074 15.784a27.274 27.274 0 0 0 15.926 5.122 28.068 28.068 0 0 0 4.6-.381 27.451 27.451 0 0 0 22.629-31.648c-.006-.037-.014-.074-.021-.111a27.457 27.457 0 0 0 22.741-31.677c-.006-.037-.015-.073-.021-.111a27.471 27.471 0 0 0 22.733-31.789c.035-.006.071-.007.106-.013a27.448 27.448 0 0 0 23.006-26.805l37.518-17.182 5.291 8.234a8 8 0 0 0 11.055 2.407l70.39-45.227a8 8 0 0 0 2.406-11.055l-86.473-134.593a8 8 0 0 0 -11.057-2.406l-70.391 45.227a8 8 0 0 0 -2.406 11.055l2.264 3.523h-98.52a57.53 57.53 0 0 0 -41.875 17.259l-7.948 7.892-30.017-17.331 7.288-11.343a8 8 0 0 0 -2.406-11.055l-70.389-45.227a8 8 0 0 0 -11.055 2.406l-86.475 134.588a8 8 0 0 0 2.406 11.055l70.39 45.227a8 8 0 0 0 11.055-2.407l4.973-7.739 18.783 18.784a27.6 27.6 0 0 0 2.114 36.559zm11.309-11.314a11.594 11.594 0 0 1 0-16.312l16.3-16.3a11.534 11.534 0 1 1 16.311 16.312l-16.3 16.3a11.548 11.548 0 0 1 -16.311 0zm27.626 27.626a11.548 11.548 0 0 1 0-16.312l32.6-32.6a11.535 11.535 0 0 1 16.312 16.313l-32.6 32.6a11.549 11.549 0 0 1 -16.308-.001zm35.781 30.98a11.535 11.535 0 0 1 -8.156-19.667l21.653-21.652a11.534 11.534 0 0 1 16.312 16.311l-9.7 9.7h-.005l-11.944 11.953a11.449 11.449 0 0 1 -8.156 3.355zm47.727 12.324-11.941 11.951a11.535 11.535 0 1 1 -16.312-16.313l11.941-11.941a11.534 11.534 0 0 1 16.311 16.312zm181.682-280.3 77.825 121.127-56.929 36.579-77.822-121.131zm-201.57 70.628a41.506 41.506 0 0 1 30.6-12.612h108.8l59.9 93.234-33.334 15.271a27.387 27.387 0 0 0 -6.947-7.216l-80.915-57.886a40.341 40.341 0 0 0 -46.694-.486l-29.676 20.305a28.546 28.546 0 0 1 -30.646 1.567l-8.159-4.435a6.026 6.026 0 0 1 -1.368-9.57zm-137.562 87.074-56.929-36.579 77.825-121.127 56.93 36.579zm79.664-94.389 26.912 15.538-18.727 18.6a22.026 22.026 0 0 0 5 34.98l8.159 4.435a44.63 44.63 0 0 0 47.323-2.42l29.677-20.305a24.189 24.189 0 0 1 28.349.3l80.921 57.884a11.534 11.534 0 0 1 -13.416 18.765h-.009l-58.97-42.166a8 8 0 1 0 -9.306 13.015l58.979 42.172a11.534 11.534 0 1 1 -13.418 18.765l-44.448-31.782a8 8 0 1 0 -9.306 13.014l44.45 31.785a11.534 11.534 0 1 1 -13.418 18.75h-.007l-29.643-21.2a8 8 0 1 0 -9.306 13.015l29.65 21.2a11.534 11.534 0 0 1 -13.418 18.764l-29.122-20.823c-.209-.15-.423-.285-.641-.411a27.444 27.444 0 0 0 -19.233-19.553 27.514 27.514 0 0 0 -17.33-37.166 27.526 27.526 0 0 0 -42.731-33 27.555 27.555 0 0 0 -45.326-10.029l-7.235 7.235-21.113-21.11zm-65.981-104.01a8 8 0 0 0 7.821 9.685h317.024a8 8 0 0 0 7.82-9.685 80.526 80.526 0 0 0 -78.695-63.476 79.878 79.878 0 0 0 -43.78 12.95 80.77 80.77 0 0 0 -87.723-.006 80.517 80.517 0 0 0 -122.467 50.532zm314.114-6.315h-70.725a80.171 80.171 0 0 0 -19.956-33.479 64.04 64.04 0 0 1 30.542-7.682 64.9 64.9 0 0 1 60.139 41.161zm-87.625 0h-120.317a64.543 64.543 0 0 1 120.317 0zm-147.793-41.161a64.226 64.226 0 0 1 30.527 7.677 80.2 80.2 0 0 0 -19.943 33.484h-70.728a64.9 64.9 0 0 1 60.144-41.161zm36.343-60.382a36.343 36.343 0 1 0 -36.343 36.343 36.385 36.385 0 0 0 36.343-36.343zm-56.686 0a20.343 20.343 0 1 1 20.343 20.343 20.366 20.366 0 0 1 -20.343-20.343zm231.961 0a36.344 36.344 0 1 0 -36.344 36.343 36.385 36.385 0 0 0 36.344-36.343zm-56.687 0a20.344 20.344 0 1 1 20.343 20.343 20.366 20.366 0 0 1 -20.343-20.343zm-30.951 0a36.343 36.343 0 1 0 -36.343 36.343 36.384 36.384 0 0 0 36.343-36.343zm-56.686 0a20.343 20.343 0 1 1 20.343 20.343 20.366 20.366 0 0 1 -20.343-20.343z" fill="#ffffff"></path></svg>