<svg xmlns="http://www.w3.org/2000/svg" clip-rule="evenodd" fill-rule="evenodd" height="512" viewBox="0 0 1707 1707" width="512"><g id="Layer_x0020_1"><g id="_439311464"><g><g><path d="m1472 1707h-866c-98 0-179-81-179-179 0-99 81-178 179-178h866c99 0 179 81 179 178 0 98-80 179-179 179zm-866-310c-72 0-130 59-130 130 0 72 58 130 130 130h866c72 0 130-58 130-130 0-71-58-130-130-130z" fill="#ffffff"></path></g><g><path d="m1454 1397c-14 0-25-11-25-24v-432h-356c-14 0-25-11-25-25v-177h-193l-203 316 171 302c7 11 3 27-10 34-11 7-26 2-33-10l-178-314c-4-8-4-18 0-25l218-340c4-6 13-11 21-11h232c13 0 25 11 25 25v178h356c14 0 25 11 25 25v455c-1 14-12 23-25 23z" fill="#ffffff"></path></g><g><path d="m967 1080h-343c-13 0-25-11-25-25s12-25 25-25h320v-315c0-14 11-25 24-25 14 0 25 11 25 25v340c-1 14-12 25-26 25z" fill="#ffffff"></path></g><g><path d="m1390 551c-91 0-165-73-165-165 0-91 74-166 165-166 92 0 165 75 165 166 0 92-75 165-165 165zm0-283c-64 0-116 53-116 118 0 64 52 117 116 117s117-53 117-117c0-65-53-118-117-118z" fill="#ffffff"></path></g><g><path d="m1073 740c-6 0-13-3-17-7-10-10-10-25 0-35l219-227c10-10 25-10 35 0 9 9 9 25 0 34l-221 228c-4 4-11 7-16 7zm-117 0c-6 0-12-3-17-7-9-10-9-25 0-35l296-301c10-9 25-9 35 0 9 10 9 25 0 35l-296 301c-6 4-11 7-18 7z" fill="#ffffff"></path></g><g><path d="m1249 407c-2 0-2 0-3 0l-792-94c-14-2-22-14-21-27 1-14 14-22 26-21l794 95c14 1 22 14 21 26-2 13-13 21-25 21zm30-83c-1 0-3 0-3 0l-897-117c-14-1-22-14-21-28 1-13 14-22 28-20l896 116c14 2 22 14 21 28-2 11-11 21-24 21z" fill="#ffffff"></path></g><g><path d="m702 959c-7 0-15-4-19-10l-547-775c-35-49-23-118 26-154 49-35 118-24 154 26l507 719c8 11 5 26-6 33-11 9-26 6-33-5l-509-719c-20-28-58-35-86-15-28 19-35 58-15 86l548 775c8 11 5 27-6 34-4 4-10 5-14 5z" fill="#ffffff"></path></g><g><path d="m394 225h-212c-14 0-25-11-25-25s11-25 25-25h212c14 0 25 11 25 25s-11 25-25 25z" fill="#ffffff"></path></g><g><path d="m486 356-211-2c-14 0-24-11-24-25s11-23 25-23l211 1c14 0 24 11 24 25 0 13-11 24-25 24z" fill="#ffffff"></path></g><g><path d="m577 486-209-1c-14 0-24-11-24-25s11-24 25-24l211 1c14 0 24 12 24 25-2 13-13 24-27 24z" fill="#ffffff"></path></g><g><path d="m670 616h-211c-14 0-25-11-25-25 0-13 11-25 25-25l211 1c14 0 25 11 25 24 0 14-11 25-25 25z" fill="#ffffff"></path></g><g><path d="m763 747-212-2c-14 0-24-11-24-25 0-13 11-23 25-23l213 1c13 0 23 11 23 25-1 13-12 24-25 24z" fill="#ffffff"></path></g><g><path d="m1390 461c-41 0-75-33-75-75 0-41 34-76 75-76 42 0 77 35 77 76 0 40-35 75-77 75zm0-103c-15 0-26 13-26 28 0 14 12 27 26 27 15 0 28-13 28-27 0-15-13-28-28-28z" fill="#ffffff"></path></g><g><path d="m613 1629c-54 0-98-44-98-98s44-97 98-97 97 43 97 97c0 55-44 98-97 98zm0-145c-27 0-50 22-50 48 0 28 23 50 50 50s49-22 49-50c0-26-22-48-49-48z" fill="#ffffff"></path></g><g><path d="m1465 1622c-54 0-98-44-98-98s44-99 98-99 97 45 97 99-43 98-97 98zm0-148c-28 0-50 22-50 50 0 27 22 50 50 50 26 0 49-23 49-50 0-28-21-50-49-50z" fill="#ffffff"></path></g><g><path d="m1202 1707h-1066c-14 0-25-11-25-25s11-25 25-25h1066c13 0 25 11 25 25s-12 25-25 25z" fill="#ffffff"></path></g><g><path d="m1006 1170h-104c-14 0-25-11-25-25s11-25 25-25h104c14 0 25 11 25 25s-13 25-25 25z" fill="#ffffff"></path></g><g><path d="m156 813c-14 0-25-11-25-25v-627c0-13 11-25 25-25 13 0 24 12 24 25v627c-1 14-11 25-24 25z" fill="#ffffff"></path></g><g><path d="m156 963c-56 0-100-44-100-100 0-54 44-98 100-98 54 0 98 44 98 98 0 56-44 100-98 100zm0-150c-30 0-52 23-52 50 0 30 24 52 52 52 27 0 49-22 49-52 0-27-22-50-49-50z" fill="#ffffff"></path></g><g><path d="m892 1502h-143c-14 0-25-12-25-25v-103c0-14 11-25 25-25s25 11 25 25v79h96v-79c0-14 11-25 25-25s25 11 25 25v104c-3 12-14 24-28 24z" fill="#ffffff"></path></g><g><path d="m1111 1502h-144c-14 0-25-12-25-25v-103c0-14 11-25 25-25s25 11 25 25v79h94v-79c0-14 12-25 25-25 14 0 25 11 25 25v104c-1 12-11 24-25 24z" fill="#ffffff"></path></g><g><path d="m1329 1502h-144c-14 0-25-12-25-25v-103c0-14 11-25 25-25s23 11 23 25v79h96v-79c0-14 11-25 25-25s25 11 25 25v104c-1 12-12 24-25 24z" fill="#ffffff"></path></g><g><path d="m892 1707c-14 0-25-11-25-25v-81h-96v81c0 14-11 25-24 25-14 0-25-11-25-25v-106c0-13 11-25 25-25h145c14 0 25 12 25 25v106c0 14-11 25-25 25z" fill="#ffffff"></path></g><g><path d="m1111 1707c-13 0-25-11-25-25v-81h-95v81c0 14-11 25-25 25s-25-11-25-25v-106c0-13 11-25 25-25h144c14 0 25 12 25 25v106c0 14-10 25-24 25z" fill="#ffffff"></path></g><g><path d="m1329 1707c-14 0-25-11-25-25v-81h-96v81c0 14-11 25-23 25-13 0-25-11-25-25v-106c0-13 11-25 25-25h144c14 0 25 12 25 25v106c-1 14-12 25-25 25z" fill="#ffffff"></path></g></g></g></g></svg>